<svg width="1133" height="181" viewBox="0 0 1133 181" fill="none" xmlns="http://www.w3.org/2000/svg">
<g clip-path="url(#clip0_39_62)">
<path d="M38.555 42.05L39.305 42.68H32L32.36 40.205H39.89L41.42 41.93V55.61H38.555V42.05ZM36.845 34.34L39.32 32L41.78 34.34L39.32 36.695L36.845 34.34Z" fill="#334155"/>
<path d="M51.1735 53.45H59.0635L60.5335 51.755V51.2L51.3535 45.785V43.475L53.9935 40.205H62.8885L63.2335 42.365H55.7035L54.2335 44.06V44.6L63.3835 50.03V52.34L60.7435 55.61H51.5185L51.1735 53.45Z" fill="#334155"/>
<path d="M79.677 44.495L77.757 42.38L70.572 44.105V42.575L78.717 39.845L82.527 43.64L82.572 46.205L79.677 46.64V44.495ZM69.402 40.205H71.487L72.267 42.5V55.61H69.402V40.205Z" fill="#334155"/>
<path d="M87.3305 50.465V45.35L92.2055 40.205H100.891L101.296 42.59H93.3155L90.0155 46.07V49.745L93.3155 53.225H101.296L100.891 55.61H92.2055L87.3305 50.465Z" fill="#334155"/>
<path d="M117.184 53.03V44.075L115.609 42.44H107.569L107.929 40.205H116.914L119.974 43.43V55.61H117.994L117.184 53.03ZM105.604 52.565V49.04L109.324 46.535H118.159V48.485H110.359L108.184 49.91V51.56L110.704 53.72L118.159 51.77V53.495L109.714 55.955L105.604 52.565Z" fill="#334155"/>
<path d="M129.053 51.14V34.505L129.728 35.15H123.728L124.073 32.66H130.313L131.843 34.385V50.27L134.228 53.135H139.043L138.698 55.61H132.818L129.053 51.14Z" fill="#334155"/>
<path d="M143.396 50.465V45.35L147.761 40.205H154.661L157.226 42.8V46.55L155.321 48.35H145.151V46.43H153.641L154.841 45.335V43.43L153.611 42.335H148.976L146.081 46.07V49.85L149.531 53.375H156.551L156.191 55.61H148.271L143.396 50.465Z" fill="#334155"/>
<path d="M162.21 33.155L165.105 32.66V42.23L164.925 42.665V55.61H162.21V33.155ZM163.77 53.36H169.965L173.145 50.09V44.69L170.61 42.575L163.77 44.21V42.335L171.51 39.845L175.995 43.88V50.945L171.255 55.61H163.77V53.36Z" fill="#334155"/>
<path d="M180.603 50.465V45.35L184.968 40.205H191.868L194.433 42.8V46.55L192.528 48.35H182.358V46.43H190.848L192.048 45.335V43.43L190.818 42.335H186.183L183.288 46.07V49.85L186.738 53.375H193.758L193.398 55.61H185.478L180.603 50.465Z" fill="#334155"/>
<path d="M206.152 56.135C205.642 56.135 205.177 56.025 204.757 55.805C204.337 55.585 204.002 55.27 203.752 54.86C203.502 54.45 203.377 53.97 203.377 53.42C203.377 52.87 203.502 52.395 203.752 51.995C204.002 51.585 204.337 51.275 204.757 51.065C205.177 50.845 205.642 50.735 206.152 50.735C206.672 50.735 207.142 50.845 207.562 51.065C207.982 51.275 208.312 51.585 208.552 51.995C208.802 52.395 208.927 52.87 208.927 53.42C208.927 53.97 208.802 54.45 208.552 54.86C208.312 55.27 207.982 55.585 207.562 55.805C207.142 56.025 206.672 56.135 206.152 56.135Z" fill="#334155"/>
<path d="M217.555 50.465V45.35L222.43 40.205H231.115L231.52 42.59H223.54L220.24 46.07V49.745L223.54 53.225H231.52L231.115 55.61H222.43L217.555 50.465Z" fill="#334155"/>
<path d="M236.159 50.465V45.35L241.034 40.205H249.719L250.124 42.59H242.144L238.844 46.07V49.745L242.144 53.225H250.124L249.719 55.61H241.034L236.159 50.465Z" fill="#334155"/>
<path d="M51.008 121.135L35.708 102.127V87.583L51.512 68.575H79.88L80.96 79.411H57.632L47.408 91.687V98.023L57.128 110.299H67.676L73.76 104.179V100.183H60.584V91.291H83.48V108.859L71.996 121.135H51.008ZM97.2567 121.135V87.547L112.233 68.575H126.849L141.825 87.547V121.135H130.053V110.227H109.029V121.135H97.2567ZM109.029 101.803H130.053V91.939L119.541 77.719L109.029 91.939V101.803ZM157.041 121.135V68.575H168.813L180.549 86.827H180.981L194.049 68.575H204.562V121.135H195.31V83.911H194.662L181.377 107.131H179.469L166.653 83.911H166.149V121.135H157.041ZM220.786 121.135V68.575H256.858L257.938 78.331H232.63V89.959H252.682V99.211H232.63V111.379H259.018L257.938 121.135H220.786Z" fill="#0F172A"/>
<path d="M304.584 121.135V112.135L290.364 99.967H284.676V121.135H272.544V68.575H284.676V90.175H291.372L305.664 78.691V68.575H317.724V81.571L301.416 94.423L317.724 108.139V121.135H304.584ZM334.489 121.135L333.769 111.379H346.405V78.331H333.769L334.489 68.575H370.201L370.921 78.331H358.285V111.379H370.921L370.201 121.135H334.489ZM405.829 121.135V78.331H386.749L387.469 68.575H435.781L436.501 78.331H417.709V121.135H405.829Z" fill="#2DD3BE"/>
<path d="M312.25 148.655V131.135H325.702L326.062 134.387H316.198V139.103H323.434V142.187H316.198V148.655H312.25Z" fill="#FA913C"/>
<path d="M335.443 148.655L329.647 142.319V137.471L335.443 131.135H340.099L346.075 137.471V142.319L340.303 148.655H335.443ZM333.547 140.819L337.279 144.923H338.455L342.175 140.819V138.971L338.455 134.867H337.279L333.547 138.971V140.819Z" fill="#FA913C"/>
<path d="M349.191 148.655V131.135H359.631L364.503 134.699V138.467L360.903 141.107L364.707 145.619V148.655H360.687V145.811L357.663 142.031H353.235V148.655H349.191ZM353.235 139.499H358.071L360.603 137.459V136.187L358.071 134.747H353.235V139.499Z" fill="#FA913C"/>
<path d="M391.411 148.655L385.615 142.319V137.471L391.411 131.135H396.067L402.043 137.471V142.319L396.271 148.655H391.411ZM389.515 140.819L393.247 144.923H394.423L398.143 140.819V138.971L394.423 134.867H393.247L389.515 138.971V140.819Z" fill="#FA913C"/>
<path d="M414.16 140.939H410.836L410.464 131.135H414.532L414.16 140.939ZM409.924 146.567C409.924 145.055 411.088 144.167 412.504 144.167C413.896 144.167 415.06 145.055 415.06 146.567C415.06 148.055 413.896 148.979 412.504 148.979C411.088 148.979 409.924 148.055 409.924 146.567Z" fill="#FA913C"/>
<path d="M424.188 148.655V131.135H437.64L438 134.387H428.136V139.103H435.372V142.187H428.136V148.655H424.188Z" fill="#FA913C"/>
</g>
<path d="M578.128 121.24V68.6795H618.484L619.564 78.4355H589.972V92.5835H611.68V101.836H589.972V121.24H578.128ZM651.305 121.24L633.917 102.232V87.6875L651.305 68.6795H665.273L683.201 87.6875V102.232L665.885 121.24H651.305ZM645.617 97.7315L656.813 110.044H660.341L671.501 97.7315V92.1875L660.341 79.8755H656.813L645.617 92.1875V97.7315ZM695.825 121.24V68.6795H702.701L728.909 99.9635H729.342V68.6795H740.393V121.24H733.121L707.309 91.3595H706.877V121.24H695.825ZM771.846 121.24V78.4355H755.214L755.934 68.6795H799.35L800.07 78.4355H783.726V121.24H771.846Z" fill="#0F172A"/>
<path d="M820.22 121.24L811.688 110.62V68.6795H823.748V106.984L827.348 111.484H840.596L844.196 106.984V68.6795H856.256V110.62L847.724 121.24H820.22ZM873.633 121.24L872.553 110.404H897.897L900.597 107.38V105.076L872.913 88.1555V79.8755L882.993 68.6795H912.549L913.629 79.5155H889.041L886.341 82.5395V84.8435L913.989 101.764V110.044L903.909 121.24H873.633ZM930.825 121.24V87.6515L945.801 68.6795H960.417L975.393 87.6515V121.24H963.621V110.332H942.597V121.24H930.825ZM942.597 101.908H963.621V92.0435L953.109 77.8235L942.597 92.0435V101.908ZM1003.71 121.24L988.414 102.232V87.6875L1004.22 68.6795H1032.59L1033.67 79.5155H1010.34L1000.11 91.7915V98.1275L1009.83 110.404H1020.38L1026.47 104.284V100.288H1013.29V91.3955H1036.19V108.964L1024.7 121.24H1003.71ZM1051.65 121.24V68.6795H1090.43L1091.51 78.4355H1063.5V90.0635H1085.78V99.3155H1063.5V111.484H1092.59L1091.51 121.24H1051.65Z" fill="#2DD3BE"/>
<defs>
<clipPath id="clip0_39_62">
<rect width="411" height="116.979" fill="white" transform="translate(32 32)"/>
</clipPath>
</defs>
</svg>
