<svg width="450" height="73" viewBox="0 0 450 73" fill="none" xmlns="http://www.w3.org/2000/svg">
<path d="M0.680001 72V1.92H44.264V13.056H12.488V31.776H41.768V42.912H12.68V72H0.680001ZM79.3625 72.96C74.8825 72.96 70.9785 72.128 67.6505 70.464C64.3865 68.736 61.8585 66.336 60.0665 63.264C58.3385 60.128 57.4745 56.448 57.4745 52.224V21.696C57.4745 17.472 58.3385 13.824 60.0665 10.752C61.8585 7.616 64.3865 5.216 67.6505 3.55199C70.9785 1.824 74.8825 0.959999 79.3625 0.959999C83.9065 0.959999 87.8105 1.824 91.0745 3.55199C94.3385 5.216 96.8345 7.616 98.5625 10.752C100.354 13.824 101.25 17.44 101.25 21.6V52.224C101.25 56.448 100.354 60.128 98.5625 63.264C96.8345 66.336 94.3385 68.736 91.0745 70.464C87.8105 72.128 83.9065 72.96 79.3625 72.96ZM79.3625 62.4C82.6265 62.4 85.0905 61.536 86.7545 59.808C88.4185 58.016 89.2505 55.488 89.2505 52.224V21.696C89.2505 18.368 88.4185 15.84 86.7545 14.112C85.0905 12.384 82.6265 11.52 79.3625 11.52C76.0985 11.52 73.6345 12.384 71.9705 14.112C70.3065 15.84 69.4745 18.368 69.4745 21.696V52.224C69.4745 55.488 70.3065 58.016 71.9705 59.808C73.6985 61.536 76.1625 62.4 79.3625 62.4ZM115.421 72V1.92H137.597C142.269 1.92 146.301 2.784 149.693 4.512C153.149 6.24 155.837 8.672 157.757 11.808C159.677 14.88 160.637 18.528 160.637 22.752C160.637 27.36 159.453 31.424 157.085 34.944C154.781 38.464 151.645 40.96 147.677 42.432L161.597 72H148.157L135.965 44.16H127.421V72H115.421ZM127.421 33.6H137.597C140.989 33.6 143.645 32.672 145.565 30.816C147.485 28.96 148.445 26.4 148.445 23.136C148.445 19.808 147.485 17.216 145.565 15.36C143.645 13.44 140.989 12.48 137.597 12.48H127.421V33.6ZM194.872 72.96C190.392 72.96 186.456 72.128 183.064 70.464C179.736 68.736 177.144 66.336 175.288 63.264C173.496 60.128 172.6 56.448 172.6 52.224V21.696C172.6 17.408 173.496 13.728 175.288 10.656C177.144 7.584 179.736 5.216 183.064 3.55199C186.456 1.824 190.392 0.959999 194.872 0.959999C199.416 0.959999 203.32 1.824 206.584 3.55199C209.912 5.216 212.504 7.584 214.36 10.656C216.216 13.728 217.144 17.408 217.144 21.696H205.048C205.048 18.368 204.152 15.84 202.36 14.112C200.632 12.384 198.136 11.52 194.872 11.52C191.608 11.52 189.08 12.384 187.288 14.112C185.496 15.84 184.6 18.336 184.6 21.6V52.224C184.6 55.488 185.496 58.016 187.288 59.808C189.08 61.6 191.608 62.496 194.872 62.496C198.136 62.496 200.632 61.6 202.36 59.808C204.152 58.016 205.048 55.488 205.048 52.224V45.12H193.144V34.752H217.144V52.224C217.144 56.448 216.216 60.128 214.36 63.264C212.504 66.336 209.912 68.736 206.584 70.464C203.32 72.128 199.416 72.96 194.872 72.96ZM231.698 72V1.92H273.746V12.384H243.506V30.624H270.386V40.992H243.506V61.536H273.746V72H231.698Z" fill="#101010"/>
<path d="M288.109 72V1.92H300.109V30.24H308.461L321.613 1.92H334.669L319.021 35.52L335.437 72H322.093L308.269 41.184H300.109V72H288.109ZM347.015 72V61.44H361.127V12.48H347.015V1.92H387.335V12.48H373.223V61.44H387.335V72H347.015ZM418.69 72V13.056H400.354V1.92H449.122V13.056H430.786V72H418.69Z" fill="#FFD500"/>
</svg>
