<svg width="1362" height="316" viewBox="0 0 1362 316" fill="none" xmlns="http://www.w3.org/2000/svg">
<g clip-path="url(#clip0_31_55)">
<path d="M146.27 175V149.14H133.16L133.88 144.19H148.94L152 147.64V175H146.27ZM142.85 132.46L147.8 127.78L152.72 132.46L147.8 137.17L142.85 132.46ZM172.197 175L171.507 170.68H187.287L190.227 167.29V166.18L171.867 155.35V150.73L177.147 144.19H194.937L195.627 148.51H180.567L177.627 151.9V152.98L195.927 163.84V168.46L190.647 175H172.197ZM228.514 157.06V152.77L224.674 148.54L213.694 151.18V175H207.964V144.19H212.134L213.394 147.88L226.594 143.47L234.214 151.06L234.304 156.19L228.514 157.06ZM253.571 175L243.821 164.71V154.48L253.571 144.19H270.941L271.751 148.96H255.791L249.191 155.92V163.27L255.791 170.23H271.751L270.941 175H253.571ZM305.148 175L303.948 171.22L288.588 175.69L280.368 168.91V161.86L287.808 156.85H303.528V151.93L300.378 148.66H284.298L285.018 144.19H302.988L309.108 150.64V175H305.148ZM285.528 166.9L290.568 171.22L303.528 167.83V160.75H289.878L285.528 163.6V166.9ZM334.795 175L327.265 166.06V134.08H316.615L317.305 129.1H329.785L332.845 132.55V164.32L337.615 170.05H347.245L346.555 175H334.795ZM365.702 175L355.952 164.71V154.48L364.682 144.19H378.482L383.612 149.38V156.88L379.802 160.48H361.322V163.48L368.222 170.53H382.262L381.542 175H365.702ZM361.322 156.64H376.442L378.842 154.45V150.64L376.382 148.45H367.112L361.322 155.92V156.64ZM393.579 175V130.09L399.369 129.1V147.58L412.179 143.47L421.149 151.54V165.67L411.669 175H393.579ZM399.009 170.5H409.089L415.449 163.96V153.16L410.379 148.93L399.009 151.66V170.5ZM440.116 175L430.366 164.71V154.48L439.096 144.19H452.896L458.026 149.38V156.88L454.216 160.48H435.736V163.48L442.636 170.53H456.676L455.956 175H440.116ZM435.736 156.64H450.856L453.256 154.45V150.64L450.796 148.45H441.526L435.736 155.92V156.64ZM481.463 176.05C478.403 176.05 475.913 174.01 475.913 170.62C475.913 167.2 478.403 165.25 481.463 165.25C484.553 165.25 487.013 167.2 487.013 170.62C487.013 174.01 484.553 176.05 481.463 176.05ZM514.02 175L504.27 164.71V154.48L514.02 144.19H531.39L532.2 148.96H516.24L509.64 155.92V163.27L516.24 170.23H532.2L531.39 175H514.02ZM551.227 175L541.477 164.71V154.48L551.227 144.19H568.597L569.407 148.96H553.447L546.847 155.92V163.27L553.447 170.23H569.407L568.597 175H551.227Z" fill="#334155"/>
</g>
<path d="M832.008 178L816.708 158.992V144.448L832.512 125.44H860.88L861.96 136.276H838.632L828.408 148.552V154.888L838.128 167.164H848.676L854.76 161.044V157.048H841.584V148.156H864.48V165.724L852.996 178H832.008ZM878.257 178V144.412L893.233 125.44H907.849L922.825 144.412V178H911.053V167.092H890.029V178H878.257ZM890.029 158.668H911.053V148.804L900.541 134.584L890.029 148.804V158.668ZM938.041 178V125.44H949.813L961.549 143.692H961.981L975.049 125.44H985.562V178H976.31V140.776H975.662L962.377 163.996H960.469L947.653 140.776H947.149V178H938.041ZM1001.79 178V125.44H1037.86L1038.94 135.196H1013.63V146.824H1033.68V156.076H1013.63V168.244H1040.02L1038.94 178H1001.79Z" fill="#F0F4F8"/>
<path d="M1095.58 178V169L1081.36 156.832H1075.68V178H1063.54V125.44H1075.68V147.04H1082.37L1096.66 135.556V125.44H1108.72V138.436L1092.42 151.288L1108.72 165.004V178H1095.58ZM1125.49 178L1124.77 168.244H1137.4V135.196H1124.77L1125.49 125.44H1161.2L1161.92 135.196H1149.28V168.244H1161.92L1161.2 178H1125.49ZM1196.83 178V135.196H1177.75L1178.47 125.44H1226.78L1227.5 135.196H1208.71V178H1196.83Z" fill="#2DD3BE"/>
<defs>
<clipPath id="clip0_31_55">
<rect width="673" height="60" fill="white" transform="translate(128 128)"/>
</clipPath>
</defs>
</svg>
