<svg width="1422" height="316" viewBox="0 0 1422 316" fill="none" xmlns="http://www.w3.org/2000/svg">
<g clip-path="url(#clip0_16_18)">
<path d="M146.27 175V149.14H133.16L133.88 144.19H148.94L152 147.64V175H146.27ZM142.85 132.46L147.8 127.78L152.72 132.46L147.8 137.17L142.85 132.46ZM172.197 175L171.507 170.68H187.287L190.227 167.29V166.18L171.867 155.35V150.73L177.147 144.19H194.937L195.627 148.51H180.567L177.627 151.9V152.98L195.927 163.84V168.46L190.647 175H172.197ZM228.514 157.06V152.77L224.674 148.54L213.694 151.18V175H207.964V144.19H212.134L213.394 147.88L226.594 143.47L234.214 151.06L234.304 156.19L228.514 157.06ZM253.571 175L243.821 164.71V154.48L253.571 144.19H270.941L271.751 148.96H255.791L249.191 155.92V163.27L255.791 170.23H271.751L270.941 175H253.571ZM305.148 175L303.948 171.22L288.588 175.69L280.368 168.91V161.86L287.808 156.85H303.528V151.93L300.378 148.66H284.298L285.018 144.19H302.988L309.108 150.64V175H305.148ZM285.528 166.9L290.568 171.22L303.528 167.83V160.75H289.878L285.528 163.6V166.9ZM334.795 175L327.265 166.06V134.08H316.615L317.305 129.1H329.785L332.845 132.55V164.32L337.615 170.05H347.245L346.555 175H334.795ZM365.702 175L355.952 164.71V154.48L364.682 144.19H378.482L383.612 149.38V156.88L379.802 160.48H361.322V163.48L368.222 170.53H382.262L381.542 175H365.702ZM361.322 156.64H376.442L378.842 154.45V150.64L376.382 148.45H367.112L361.322 155.92V156.64ZM393.579 175V130.09L399.369 129.1V147.58L412.179 143.47L421.149 151.54V165.67L411.669 175H393.579ZM399.009 170.5H409.089L415.449 163.96V153.16L410.379 148.93L399.009 151.66V170.5ZM440.116 175L430.366 164.71V154.48L439.096 144.19H452.896L458.026 149.38V156.88L454.216 160.48H435.736V163.48L442.636 170.53H456.676L455.956 175H440.116ZM435.736 156.64H450.856L453.256 154.45V150.64L450.796 148.45H441.526L435.736 155.92V156.64ZM481.463 176.05C478.403 176.05 475.913 174.01 475.913 170.62C475.913 167.2 478.403 165.25 481.463 165.25C484.553 165.25 487.013 167.2 487.013 170.62C487.013 174.01 484.553 176.05 481.463 176.05ZM514.02 175L504.27 164.71V154.48L514.02 144.19H531.39L532.2 148.96H516.24L509.64 155.92V163.27L516.24 170.23H532.2L531.39 175H514.02ZM551.227 175L541.477 164.71V154.48L551.227 144.19H568.597L569.407 148.96H553.447L546.847 155.92V163.27L553.447 170.23H569.407L568.597 175H551.227Z" fill="#334155"/>
</g>
<path d="M820.128 178V125.44H860.484L861.564 135.196H831.972V149.344H853.68V158.596H831.972V178H820.128ZM893.305 178L875.917 158.992V144.448L893.305 125.44H907.273L925.201 144.448V158.992L907.885 178H893.305ZM887.617 154.492L898.813 166.804H902.341L913.501 154.492V148.948L902.341 136.636H898.813L887.617 148.948V154.492ZM938.149 178V125.44H969.469L984.085 136.132V147.436L973.285 155.356L984.697 168.892V178H972.637V169.468L963.565 158.128H950.281V178H938.149ZM950.281 150.532H964.789L972.385 144.412V140.596L964.789 136.276H950.281V150.532ZM1010.71 178L995.414 158.992V144.448L1011.22 125.44H1039.59L1040.67 136.276H1017.34L1007.11 148.552V154.888L1016.83 167.164H1027.38L1033.47 161.044V157.048H1020.29V148.156H1043.19V165.724L1031.7 178H1010.71ZM1058.65 178V125.44H1097.43L1098.51 135.196H1070.5V146.824H1092.78V156.076H1070.5V168.244H1099.59L1098.51 178H1058.65Z" fill="#F0F4F8"/>
<path d="M1155.58 178V169L1141.36 156.832H1135.68V178H1123.54V125.44H1135.68V147.04H1142.37L1156.66 135.556V125.44H1168.72V138.436L1152.42 151.288L1168.72 165.004V178H1155.58ZM1185.49 178L1184.77 168.244H1197.4V135.196H1184.77L1185.49 125.44H1221.2L1221.92 135.196H1209.28V168.244H1221.92L1221.2 178H1185.49ZM1256.83 178V135.196H1237.75L1238.47 125.44H1286.78L1287.5 135.196H1268.71V178H1256.83Z" fill="#2DD3BE"/>
<defs>
<clipPath id="clip0_16_18">
<rect width="673" height="60" fill="white" transform="translate(128 128)"/>
</clipPath>
</defs>
</svg>
