<svg width="1192" height="181" viewBox="0 0 1192 181" fill="none" xmlns="http://www.w3.org/2000/svg">
<g clip-path="url(#clip0_33_105)">
<path d="M38.555 42.05L39.305 42.68H32L32.36 40.205H39.89L41.42 41.93V55.61H38.555V42.05ZM36.845 34.34L39.32 32L41.78 34.34L39.32 36.695L36.845 34.34Z" fill="#334155"/>
<path d="M51.1735 53.45H59.0635L60.5335 51.755V51.2L51.3535 45.785V43.475L53.9935 40.205H62.8885L63.2335 42.365H55.7035L54.2335 44.06V44.6L63.3835 50.03V52.34L60.7435 55.61H51.5185L51.1735 53.45Z" fill="#334155"/>
<path d="M79.677 44.495L77.757 42.38L70.572 44.105V42.575L78.717 39.845L82.527 43.64L82.572 46.205L79.677 46.64V44.495ZM69.402 40.205H71.487L72.267 42.5V55.61H69.402V40.205Z" fill="#334155"/>
<path d="M87.3305 50.465V45.35L92.2055 40.205H100.891L101.296 42.59H93.3155L90.0155 46.07V49.745L93.3155 53.225H101.296L100.891 55.61H92.2055L87.3305 50.465Z" fill="#334155"/>
<path d="M117.184 53.03V44.075L115.609 42.44H107.569L107.929 40.205H116.914L119.974 43.43V55.61H117.994L117.184 53.03ZM105.604 52.565V49.04L109.324 46.535H118.159V48.485H110.359L108.184 49.91V51.56L110.704 53.72L118.159 51.77V53.495L109.714 55.955L105.604 52.565Z" fill="#334155"/>
<path d="M129.053 51.14V34.505L129.728 35.15H123.728L124.073 32.66H130.313L131.843 34.385V50.27L134.228 53.135H139.043L138.698 55.61H132.818L129.053 51.14Z" fill="#334155"/>
<path d="M143.396 50.465V45.35L147.761 40.205H154.661L157.226 42.8V46.55L155.321 48.35H145.151V46.43H153.641L154.841 45.335V43.43L153.611 42.335H148.976L146.081 46.07V49.85L149.531 53.375H156.551L156.191 55.61H148.271L143.396 50.465Z" fill="#334155"/>
<path d="M162.21 33.155L165.105 32.66V42.23L164.925 42.665V55.61H162.21V33.155ZM163.77 53.36H169.965L173.145 50.09V44.69L170.61 42.575L163.77 44.21V42.335L171.51 39.845L175.995 43.88V50.945L171.255 55.61H163.77V53.36Z" fill="#334155"/>
<path d="M180.603 50.465V45.35L184.968 40.205H191.868L194.433 42.8V46.55L192.528 48.35H182.358V46.43H190.848L192.048 45.335V43.43L190.818 42.335H186.183L183.288 46.07V49.85L186.738 53.375H193.758L193.398 55.61H185.478L180.603 50.465Z" fill="#334155"/>
<path d="M206.152 56.135C205.642 56.135 205.177 56.025 204.757 55.805C204.337 55.585 204.002 55.27 203.752 54.86C203.502 54.45 203.377 53.97 203.377 53.42C203.377 52.87 203.502 52.395 203.752 51.995C204.002 51.585 204.337 51.275 204.757 51.065C205.177 50.845 205.642 50.735 206.152 50.735C206.672 50.735 207.142 50.845 207.562 51.065C207.982 51.275 208.312 51.585 208.552 51.995C208.802 52.395 208.927 52.87 208.927 53.42C208.927 53.97 208.802 54.45 208.552 54.86C208.312 55.27 207.982 55.585 207.562 55.805C207.142 56.025 206.672 56.135 206.152 56.135Z" fill="#334155"/>
<path d="M217.555 50.465V45.35L222.43 40.205H231.115L231.52 42.59H223.54L220.24 46.07V49.745L223.54 53.225H231.52L231.115 55.61H222.43L217.555 50.465Z" fill="#334155"/>
<path d="M236.159 50.465V45.35L241.034 40.205H249.719L250.124 42.59H242.144L238.844 46.07V49.745L242.144 53.225H250.124L249.719 55.61H241.034L236.159 50.465Z" fill="#334155"/>
<path d="M51.008 121.135L35.708 102.127V87.583L51.512 68.575H79.88L80.96 79.411H57.632L47.408 91.687V98.023L57.128 110.299H67.676L73.76 104.179V100.183H60.584V91.291H83.48V108.859L71.996 121.135H51.008ZM97.2567 121.135V87.547L112.233 68.575H126.849L141.825 87.547V121.135H130.053V110.227H109.029V121.135H97.2567ZM109.029 101.803H130.053V91.939L119.541 77.719L109.029 91.939V101.803ZM157.041 121.135V68.575H168.813L180.549 86.827H180.981L194.049 68.575H204.562V121.135H195.31V83.911H194.662L181.377 107.131H179.469L166.653 83.911H166.149V121.135H157.041ZM220.786 121.135V68.575H256.858L257.938 78.331H232.63V89.959H252.682V99.211H232.63V111.379H259.018L257.938 121.135H220.786Z" fill="#111827"/>
<path d="M304.584 121.135V112.135L290.364 99.967H284.676V121.135H272.544V68.575H284.676V90.175H291.372L305.664 78.691V68.575H317.724V81.571L301.416 94.423L317.724 108.139V121.135H304.584ZM334.489 121.135L333.769 111.379H346.405V78.331H333.769L334.489 68.575H370.201L370.921 78.331H358.285V111.379H370.921L370.201 121.135H334.489ZM405.829 121.135V78.331H386.749L387.469 68.575H435.781L436.501 78.331H417.709V121.135H405.829Z" fill="#2DD3BE"/>
<path d="M304.487 131.135H308.435V148.655H304.487V131.135ZM306.659 139.103H315.671V142.187H306.659V139.103ZM306.299 131.135H317.939L318.299 134.387H306.299V131.135Z" fill="#FA913C"/>
<path d="M323.083 142.319V137.471L328.879 131.135H333.535L339.511 137.471V142.319L333.739 148.655H328.879L323.083 142.319ZM331.891 144.923L335.611 140.819V138.971L331.891 134.867H330.715L326.983 138.971V140.819L330.715 144.923H331.891Z" fill="#FA913C"/>
<path d="M345.399 139.499H352.707L355.239 137.459V136.187L352.707 134.747H345.399V131.135H354.267L359.139 134.699V138.467L354.279 142.031H345.399V139.499ZM343.827 131.135H347.871V148.655H343.827V131.135ZM355.323 145.811L351.255 140.723H355.215L359.343 145.619V148.655H355.323V145.811Z" fill="#FA913C"/>
<path d="M383.912 131.135H387.86V148.655H383.912V131.135ZM386.084 139.103H395.096V142.187H386.084V139.103ZM385.724 131.135H397.364L397.724 134.387H385.724V131.135Z" fill="#FA913C"/>
<path d="M403.288 131.135H405.58L414.316 141.563H414.46V131.135H418.144V148.655H415.72L407.116 138.695H406.972V148.655H403.288V131.135Z" fill="#FA913C"/>
<path d="M423.144 137.459L428.136 131.135H433.008L438 137.459V148.655H434.076V138.923L430.08 133.523H431.064L427.068 138.923V148.655H423.144V137.459ZM425.628 142.211H435.864V145.019H425.628V142.211Z" fill="#FA913C"/>
</g>
<path d="M576.688 68.5175H583.564L609.772 99.8015H610.204V68.5175H621.256V121.077H613.984L588.172 91.1975H587.74V121.077H576.688V68.5175ZM636.257 87.4895L651.233 68.5175H665.849L680.825 87.4895V121.077H669.053V91.8815L657.065 75.6815H660.017L648.029 91.8815V121.077H636.257V87.4895ZM643.709 101.745H674.417V110.169H643.709V101.745ZM714.725 68.5175H726.605V121.077H714.725V68.5175ZM696.365 68.5175H744.678L745.398 78.2735H695.645L696.365 68.5175ZM773.97 68.5175H785.85V121.077H773.97V68.5175ZM761.334 111.321H798.486L797.766 121.077H762.054L761.334 111.321ZM762.054 68.5175H797.766L798.486 78.2735H761.334L762.054 68.5175ZM815.107 95.6255V68.5175H826.879V91.5215L838.435 113.913H836.059L847.615 91.5215V68.5175H859.387V95.6255L844.555 121.077H829.939L815.107 95.6255ZM876.224 121.077V68.5175H888.068V121.077H876.224ZM916.076 121.077H882.02V111.321H917.156L916.076 121.077ZM910.352 99.1535H883.1V89.9015H910.352V99.1535ZM882.02 78.2735V68.5175H914.996L916.076 78.2735H882.02Z" fill="#111827"/>
<path d="M934.216 68.5175H946.06V121.077H934.216V68.5175ZM939.976 111.321H974.14L973.06 121.077H939.976V111.321ZM1006.6 68.5175H1018.48V121.077H1006.6V68.5175ZM991.769 111.321H1033.31L1032.59 121.077H992.489L991.769 111.321ZM992.489 68.5175H1032.59L1033.31 78.2735H991.769L992.489 68.5175ZM1054.79 112.401H1078.16L1085.03 106.893V104.157L1078.16 98.6855H1054.79V90.0095H1078.16L1085.03 84.9695V82.2335L1078.16 77.1935H1054.79V68.5175H1083.41L1094.93 78.1295V89.0735L1083.31 96.3095V90.9815L1096.73 100.053V110.997L1083.41 121.077H1054.79V112.401ZM1050.08 68.5175H1062.21V121.077H1050.08V68.5175ZM1110.69 110.241H1136.03L1138.73 107.217V104.913L1111.05 87.9935V79.7135L1121.13 68.5175H1150.69L1151.77 79.3535H1127.18L1124.48 82.3775V84.6815L1152.13 101.601V109.881L1142.05 121.077H1111.77L1110.69 110.241Z" fill="#2DD3BE"/>
<defs>
<clipPath id="clip0_33_105">
<rect width="411" height="116.655" fill="white" transform="translate(32 32)"/>
</clipPath>
</defs>
</svg>
